PathFileType	4	(X/Y/Z)	2_coords_data.trc
DataRate	CameraRate	NumFrames	NumMarkers	Units	OrigDataRate	OrigDataStartFrame	OrigNumFrames
30.0	30.0	7	21	m	30.0	1	59
Frame#	Time	THUMB_TIP	THUMB_IP	THUMB_MCP	THUMB_CMC	INDEX_TIP	INDEX_DIP	INDEX_PIP	INDEX_MCP	MIDDLE_TIP	MIDDLE_DIP	MIDDLE_PIP	MIDDLE_MCP	RING_TIP	RING_DIP	RING_PIP	RING_MCP	PINKY_TIP	PINKY_DIP	PINKY_PIP	PINKY_MCP	WRIST
X1	Y1	Z1	X2	Y2	Z2	X3	Y3	Z3	X4	Y4	Z4	X5	Y5	Z5	X6	Y6	Z6	X7	Y7	Z7	X8	Y8	Z8	X9	Y9	Z9	X10	Y10	Z10	X11	Y11	Z11	X12	Y12	Z12	X13	Y13	Z13	X14	Y14	Z14	X15	Y15	Z15	X16	Y16	Z16	X17	Y17	Z17	X18	Y18	Z18	X19	Y19	Z19	X20	Y20	Z20	X21	Y21	Z21
0	0.0	-0.04060229873657226	-0.04245109939575195	0.9162150268554687	-0.03977500152587891	-0.018111099243164064	0.9325330200195312	-0.04226210021972656	0.006901319980621338	0.953031982421875	-0.04815919876098633	0.04136439895629883	0.97210302734375	-0.03444699859619141	0.04330879974365234	0.9397429809570312	-0.015227299690246582	0.04966180038452148	0.9387169799804688	-0.006502830028533935	0.05017610168457031	0.9161710205078125	-0.04924729919433594	0.041992099761962894	0.9099210205078125	-0.020970500946044923	0.061929100036621096	0.9404739990234375	-0.02111319923400879	0.06653589630126953	0.9430670166015624	-0.008574239730834961	0.0693740005493164	0.9188400268554687	-0.05461370086669922	0.06373550033569336	0.9111530151367188	-0.036063499450683593	0.07684349822998048	0.9534030151367188	-0.022719800949096678	0.08152649688720703	0.9427349853515625	-0.013792499542236328	0.0871946029663086	0.9185540161132812	-0.055701099395751956	0.08502410125732422	0.9184010009765625	0.0	0.0	0.0	-0.022301799774169923	0.09617659759521484	0.94152197265625	-0.022427200317382812	0.10118099975585937	0.9257249755859375	-0.05491849899291992	0.10166999816894531	0.9267009887695312	-0.08323110198974609	0.06073770141601562	0.997030029296875
1	0.03333333333333333	-0.04091080093383789	-0.04243479919433594	0.9161890258789063	-0.04042950057983399	-0.01750539970397949	0.9327890014648438	-0.04331470108032227	0.007698229789733887	0.9531729736328125	-0.049775299072265626	0.04075749969482422	0.9725579833984375	-0.03484000015258789	0.04413019943237305	0.9409099731445313	-0.016499500274658203	0.04889810180664062	0.938427001953125	-0.005532909870147705	0.04920759963989258	0.9170230102539062	-0.04783110046386719	0.040558700561523435	0.9113569946289063	-0.02563170051574707	0.061752300262451175	0.9448280029296875	-0.020823099136352538	0.0656697006225586	0.9430040283203125	-0.00808547019958496	0.06869770050048828	0.9194359741210938	-0.05273789978027344	0.06389590072631836	0.9103300170898437	-0.03685070037841797	0.07460240173339844	0.9500479736328125	-0.022821699142456055	0.08103309631347656	0.9428569946289063	-0.012668999671936035	0.08663069915771485	0.9191640014648438	-0.05522859954833984	0.08507119750976562	0.917780029296875	-0.0364989013671875	0.08983319854736328	0.9501380004882812	-0.022027799606323242	0.09540019989013672	0.9421160278320313	-0.021567499160766602	0.10126399993896484	0.9262680053710938	-0.05479940032958985	0.10111499786376953	0.92764599609375	-0.07960489654541016	0.06061600112915039	0.9945969848632813
2	0.06666666666666667	-0.041201499938964846	-0.04254050064086914	0.915958984375	-0.0406702995300293	-0.017686199188232422	0.9325910034179687	-0.04342890167236328	0.00749360990524292	0.9530910034179687	-0.04978110122680664	0.0405630989074707	0.9726220092773438	-0.03498970031738281	0.04391189956665039	0.9408679809570313	-0.016572999954223632	0.048839298248291016	0.938197021484375	-0.005932310104370117	0.048957698822021486	0.916843994140625	-0.04823109817504883	0.040258399963378905	0.9115009765625	-0.026476200103759766	0.06102450180053711	0.9459819946289062	-0.02106469917297363	0.06535359954833984	0.9430339965820312	-0.008488539695739747	0.0685	0.9194030151367187	-0.0532052001953125	0.0635988006591797	0.9105670166015625	-0.03784130096435547	0.07378780364990234	0.9507769775390625	-0.023225000381469726	0.08075900268554688	0.9427680053710937	-0.013048999786376953	0.08637439727783203	0.9190269775390625	-0.055661598205566404	0.08464109802246093	0.9177410278320313	-0.03684400177001953	0.08937809753417969	0.950073974609375	-0.022280399322509765	0.09514769744873047	0.9422670288085937	-0.021873699188232423	0.10097599792480469	0.9262990112304688	-0.0552406005859375	0.10084500122070313	0.92785400390625	-0.07966629791259766	0.060500598907470705	0.9947739868164063
3	0.1	-0.04109220123291016	-0.042539199829101565	0.9156270141601562	-0.04059989929199219	-0.017726900100708008	0.9323140258789062	-0.04333060073852539	0.007379809856414795	0.95293798828125	-0.049822601318359375	0.0402755012512207	0.9725689697265625	-0.035017101287841794	0.04397309875488281	0.9409660034179688	-0.016760200500488282	0.04876810073852539	0.9380330200195313	-0.006080140113830566	0.04904570007324219	0.91660302734375	-0.048393199920654294	0.04018659973144531	0.9113930053710938	-0.026113199234008788	0.06153900146484375	0.9448870239257813	-0.021256799697875976	0.06543560028076172	0.9428989868164063	-0.008704620361328125	0.0685354995727539	0.91939501953125	-0.05345709991455078	0.06351070022583008	0.9104550170898438	-0.037563899993896484	0.07407209777832031	0.950114013671875	-0.02354520034790039	0.08066799926757813	0.9427269897460937	-0.013357000350952148	0.08643820190429688	0.919093017578125	-0.05611280059814453	0.08468499755859375	0.9180159912109375	-0.03716270065307617	0.08923329925537109	0.9502650146484375	-0.02260350036621094	0.09507279968261718	0.9422949829101562	-0.022236900329589845	0.10095899963378906	0.926375	-0.05554850006103516	0.10068800354003907	0.927927001953125	-0.0797030029296875	0.06014609909057617	0.9948109741210938
4	0.13333333333333333	-0.04113610076904297	-0.04252690124511719	0.9153270263671875	-0.04061470031738281	-0.01781049919128418	0.9321209716796875	-0.043422100067138675	0.007252999782562256	0.9528200073242188	-0.049859798431396485	0.040187400817871095	0.9725369873046875	-0.034906200408935543	0.04386650085449219	0.9413720092773438	-0.016634199142456056	0.04865850067138672	0.9381690063476562	-0.005914100170135498	0.048901199340820316	0.9165980224609375	-0.048305500030517576	0.0400786018371582	0.9113579711914063	-0.025944900512695313	0.061238800048828125	0.945083984375	-0.021136800765991212	0.06515070343017579	0.9430369873046875	-0.008561650276184081	0.06838990020751953	0.9193150024414063	-0.05325220108032227	0.0634271011352539	0.91039501953125	-0.03750899887084961	0.07375749969482422	0.9504940185546875	-0.023357900619506836	0.08049749755859376	0.9429320068359375	-0.013138500213623047	0.08629830169677734	0.9191959838867187	-0.05575260162353515	0.08455249786376953	0.9178770141601562	-0.03680849838256836	0.08919139862060547	0.949947021484375	-0.022419000625610353	0.09485440063476562	0.9425289916992188	-0.021974899291992187	0.10079000091552734	0.9264609985351563	-0.055237701416015625	0.10059500122070313	0.9279429931640625	-0.07988610076904297	0.059909400939941404	0.994614013671875
5	0.16666666666666666	-0.04093790054321289	-0.042518798828125	0.9150020141601563	-0.04047169876098633	-0.017808099746704102	0.9318709716796875	-0.04324539947509766	0.0071747198104858394	0.952676025390625	-0.04984260177612305	0.03997940063476563	0.9723489990234375	-0.03506620025634766	0.043723701477050785	0.9409819946289063	-0.01684239959716797	0.04861349868774414	0.9377329711914062	-0.00620363998413086	0.04884970092773438	0.9162420043945313	-0.04852799987792969	0.039784801483154296	0.91122802734375	-0.026167200088500975	0.061405498504638674	0.9447269897460937	-0.021342199325561525	0.0651593017578125	0.942677978515625	-0.008929699897766112	0.0683573989868164	0.9188109741210938	-0.05360129928588867	0.06313570022583008	0.9104390258789062	-0.038117000579833984	0.07357969665527343	0.9508270263671875	-0.023700199127197265	0.0804385986328125	0.9425430297851562	-0.013623900413513183	0.08622149658203125	0.91877099609375	-0.05625889968872071	0.0842531967163086	0.9177949829101563	-0.03719779968261719	0.08890799713134766	0.9497449951171875	-0.02285420036315918	0.09478720092773438	0.9421719970703125	-0.022584400177001952	0.10073500061035157	0.926072021484375	-0.0557963981628418	0.10031700134277344	0.9277589721679688	-0.07976580047607422	0.059820201873779295	0.9946640014648438
6	0.2	-0.04135910034179688	-0.04284600067138672	0.9148599853515625	-0.04092290115356445	-0.018142000198364257	0.93181201171875	-0.043679698944091794	0.006695799827575684	0.9525759887695312	-0.05021269989013672	0.03955889892578125	0.9722789916992187	-0.035033401489257814	0.04327119827270508	0.9407269897460937	-0.016937000274658203	0.04803179931640625	0.9377830200195313	-0.006282479763031006	0.04832659912109375	0.916197021484375	-0.04853219985961914	0.03951850128173828	0.9112429809570313	-0.026295600891113283	0.0606525993347168	0.944458984375	-0.02141699981689453	0.06463649749755859	0.9426079711914063	-0.008858670234680175	0.06785379791259766	0.919114990234375	-0.0535906982421875	0.06282379913330079	0.9104429931640625	-0.03804859924316406	0.0729906005859375	0.9502009887695313	-0.02365169906616211	0.07993949890136719	0.942635986328125	-0.013505599975585937	0.08575789642333985	0.919093017578125	-0.056026798248291015	0.08389420318603516	0.9176489868164063	-0.037046798706054686	0.08846880340576171	0.9495859985351562	-0.022746299743652342	0.09427719879150391	0.9422449951171875	-0.022325899124145506	0.10024099731445313	0.9262899780273437	-0.055616100311279296	0.0999802017211914	0.9278109741210937	-0.07999349975585937	0.05944100189208985	0.9945339965820312
